<svg xmlns="http://www.w3.org/2000/svg"  viewBox="0 0 24 24" width="48px" height="48px"><path d="M21,12c0-0.745-0.092-1.484-0.273-2.204l1.881-1.424l-2.162-3.745l-2.184,0.921c-1.075-1.047-2.375-1.799-3.807-2.204	L14.162,1H9.838L9.545,3.344C8.113,3.749,6.813,4.501,5.738,5.548L3.555,4.627L1.393,8.372l1.881,1.424C3.092,10.516,3,11.255,3,12	s0.092,1.484,0.273,2.204l-1.881,1.424l2.162,3.744l2.184-0.921c1.075,1.047,2.375,1.8,3.807,2.205L9.838,23h4.324l0.293-2.344	c1.432-0.405,2.731-1.157,3.807-2.205l2.184,0.921l2.162-3.744l-1.881-1.424C20.908,13.484,21,12.745,21,12z M12,15.25	c-1.795,0-3.25-1.455-3.25-3.25S10.205,8.75,12,8.75s3.25,1.455,3.25,3.25S13.795,15.25,12,15.25z"/></svg>